<?xml version="1.0" encoding="UTF-8" standalone="no"?>
<svg
   xmlns:dc="http://purl.org/dc/elements/1.1/"
   xmlns:cc="http://creativecommons.org/ns#"
   xmlns:rdf="http://www.w3.org/1999/02/22-rdf-syntax-ns#"
   xmlns:svg="http://www.w3.org/2000/svg"
   xmlns="http://www.w3.org/2000/svg"
   version="1.1"
   id="svg2"
   viewBox="0 0 800.00002 450.00001"
   height="450"
   width="800">
  <defs
     id="defs4" />
  <metadata
     id="metadata7">
    <rdf:RDF>
      <cc:Work
         rdf:about="">
        <dc:format>image/svg+xml</dc:format>
        <dc:type
           rdf:resource="http://purl.org/dc/dcmitype/StillImage" />
        <dc:title></dc:title>
      </cc:Work>
    </rdf:RDF>
  </metadata>
  <g
     transform="translate(0,-602.36216)"
     id="layer1">
    <path
       id="path4136"
       d="M 243.8848,896.23791 A 120.85,120.85 0 0 1 188.23632,909.8127 120.85,120.85 0 0 1 67.386322,788.96271 a 120.85,120.85 0 0 1 120.849998,-120.85 120.85,120.85 0 0 1 55.53808,13.5176"
       style="opacity:1;fill:none;fill-opacity:1;stroke:#505050;stroke-width:50;stroke-linecap:round;stroke-miterlimit:4;stroke-dasharray:none;stroke-opacity:1" />
    <path
       d=""
       style="opacity:0.7;fill:none;fill-opacity:1;stroke:#000000;stroke-width:25;stroke-miterlimit:4;stroke-dasharray:none;stroke-opacity:1"
       id="path4138"
       r="120.85"
       cy="190.19701"
       cx="270.21582" />
    <circle
       cx="399.62219"
       cy="788.96271"
       r="120.85"
       id="circle4142"
       style="opacity:1;fill:none;fill-opacity:1;stroke:#505050;stroke-width:50;stroke-miterlimit:4;stroke-dasharray:none;stroke-opacity:1" />
    <path
       style="opacity:1;fill:none;fill-opacity:1;stroke:#505050;stroke-width:50;stroke-linecap:round;stroke-miterlimit:4;stroke-dasharray:none;stroke-opacity:1"
       d="m 558.25657,910.38005 c 85.95305,0.4428 34.25886,-0.56735 53.62817,-0.56735 66.74361,0 120.84999,-54.10638 120.85,-120.84999 0,-66.74361 -54.10639,-120.85 -120.85,-120.85 -19.32727,0 -38.37265,4.63552 -55.53808,13.5176"
       id="path4160" />
    <path
       id="path4162"
       d="m 549.34043,910.68609 180.8173,0 0,79.35531 -656.756488,0"
       style="opacity:1;fill:none;fill-rule:evenodd;stroke:#505050;stroke-width:50;stroke-linecap:round;stroke-linejoin:round;stroke-miterlimit:4;stroke-dasharray:none;stroke-opacity:1" />
  </g>
</svg>
